# xmcd
#
# Track frame offsets:
#	150
#	15814
#	29040
#	41639
#	53269
#	67797
#	85056
#	105707
#	118278
#	133956
#	150504
#	164768
#	180161
#	197566
#	212415
#
# Disc length: 3037 seconds
#
# Revision: 0
# Processed by: cddbd v1.5.2PL0 Copyright (c) Steve Scherf et al.
# Submitted via: VUPlayer 2.41
#
DISCID=bb0bdb0f
DTITLE=Donna Wylde - Wylde and Live
DYEAR=2001
DGENRE=Country
TTITLE0=Back in your arms again
TTITLE1=Perfect love
TTITLE2=I fall to pieces
TTITLE3=Rocking with the rhythm of the rain
TTITLE4=Somewhere between
TTITLE5=He thinks he'll keep her
TTITLE6=How do I live
TTITLE7=Everytime you walk in the room
TTITLE8=Honey I'm home
TTITLE9=That don't impress me much
TTITLE10=Eighteen wheels
TTITLE11=Let 'er rip
TTITLE12=When you say nothing at all
TTITLE13=Down at the twist and shout
TTITLE14=Bye Bye
EXTD=
EXTT0=
EXTT1=
EXTT2=
EXTT3=
EXTT4=
EXTT5=
EXTT6=
EXTT7=
EXTT8=
EXTT9=
EXTT10=
EXTT11=
EXTT12=
EXTT13=
EXTT14=
PLAYORDER=
